<svg width="28" height="28" viewBox="0 0 28 28" fill="none" xmlns="http://www.w3.org/2000/svg">
<rect x="0.5" y="0.5" width="27" height="27" rx="3.5" stroke="white"/>
<path fill-rule="evenodd" clip-rule="evenodd" d="M23.0418 13.9998C23.0418 13.5166 22.6501 13.1248 22.1668 13.1248H5.8335C5.35025 13.1248 4.9585 13.5166 4.9585 13.9998C4.9585 14.4831 5.35025 14.8748 5.8335 14.8748H22.1668C22.6501 14.8748 23.0418 14.4831 23.0418 13.9998Z" fill="white"/>
<path fill-rule="evenodd" clip-rule="evenodd" d="M23.0418 8.1665C23.0418 7.68325 22.6501 7.2915 22.1668 7.2915H5.8335C5.35025 7.2915 4.9585 7.68325 4.9585 8.1665C4.9585 8.64975 5.35025 9.0415 5.8335 9.0415H22.1668C22.6501 9.0415 23.0418 8.64975 23.0418 8.1665Z" fill="white"/>
<path fill-rule="evenodd" clip-rule="evenodd" d="M23.0418 19.8332C23.0418 19.3499 22.6501 18.9582 22.1668 18.9582H5.8335C5.35025 18.9582 4.9585 19.3499 4.9585 19.8332C4.9585 20.3164 5.35025 20.7082 5.8335 20.7082H22.1668C22.6501 20.7082 23.0418 20.3164 23.0418 19.8332Z" fill="white"/>
</svg>
